<svg width="104" height="100" viewBox="0 0 104 100" fill="none" xmlns="http://www.w3.org/2000/svg">
<g filter="url(#filter0_i_1309_278)">
<path fill-rule="evenodd" clip-rule="evenodd" d="M101.649 37.7441C100.868 35.498 98.9639 33.8379 96.6206 33.4961L69.7213 29.3457L57.7118 3.56445C56.589 1.46484 54.441 0 52 0C49.559 0 47.411 1.46484 46.2882 3.56445L34.2787 29.3457L7.23297 33.4961C5.03611 33.8379 3.13217 35.498 2.35106 37.7441C1.56996 39.9414 2.10697 42.4316 3.81563 44.0918L23.4409 64.1602L18.7543 92.7246C18.4125 95.0684 19.4377 97.4121 21.2928 98.877C22.4157 99.6582 23.6362 100 25.0031 100C25.9795 100 27.0047 99.7559 28.0299 99.2188L52 85.9375L75.9701 99.2188C76.9953 99.7559 78.0205 100 78.9969 100C80.3638 100 81.5843 99.6582 82.7072 98.877C84.5623 97.4121 85.5875 95.0684 85.2457 92.7246L80.5591 64.1602L100.184 44.0918C101.893 42.4316 102.43 39.9414 101.649 37.7441V37.7441Z" fill="#E0E0E0"/>
</g>
<defs>
<filter id="filter0_i_1309_278" x="2" y="0" width="100" height="100" filterUnits="userSpaceOnUse" color-interpolation-filters="sRGB">
<feFlood flood-opacity="0" result="BackgroundImageFix"/>
<feBlend mode="normal" in="SourceGraphic" in2="BackgroundImageFix" result="shape"/>
<feColorMatrix in="SourceAlpha" type="matrix" values="0 0 0 0 0 0 0 0 0 0 0 0 0 0 0 0 0 0 127 0" result="hardAlpha"/>
<feOffset dy="-1"/>
<feComposite in2="hardAlpha" operator="arithmetic" k2="-1" k3="1"/>
<feColorMatrix type="matrix" values="0 0 0 0 0 0 0 0 0 0 0 0 0 0 0 0 0 0 0.1 0"/>
<feBlend mode="normal" in2="shape" result="effect1_innerShadow_1309_278"/>
</filter>
</defs>
</svg>
