<svg width="104" height="100" viewBox="0 0 104 100" fill="none" xmlns="http://www.w3.org/2000/svg">
<g filter="url(#filter0_i_1309_280)">
<path fill-rule="evenodd" clip-rule="evenodd" d="M101.649 36.2924C100.868 34.1327 98.9639 32.5364 96.6206 32.2078L69.7213 28.217L57.7118 3.42736C56.589 1.4085 54.441 0 52 0C49.559 0 47.411 1.4085 46.2882 3.42736L34.2787 28.217L7.23297 32.2078C5.03611 32.5364 3.13217 34.1327 2.35106 36.2924C1.56996 38.4052 2.10697 40.7997 3.81563 42.396L23.4409 61.6925L18.7543 89.1583C18.4125 91.4119 19.4377 93.6655 21.2928 95.074C22.4157 95.8252 23.6362 96.1538 25.0031 96.1538C25.9795 96.1538 27.0047 95.9191 28.0299 95.4026L52 82.6322L75.9701 95.4026C76.9953 95.9191 78.0205 96.1538 78.9969 96.1538C80.3638 96.1538 81.5843 95.8252 82.7072 95.074C84.5623 93.6655 85.5875 91.4119 85.2457 89.1583L80.5591 61.6925L100.184 42.396C101.893 40.7997 102.43 38.4052 101.649 36.2924V36.2924Z" fill="url(#paint0_linear_1309_280)"/>
</g>
<defs>
<filter id="filter0_i_1309_280" x="2" y="0" width="100" height="96.1538" filterUnits="userSpaceOnUse" color-interpolation-filters="sRGB">
<feFlood flood-opacity="0" result="BackgroundImageFix"/>
<feBlend mode="normal" in="SourceGraphic" in2="BackgroundImageFix" result="shape"/>
<feColorMatrix in="SourceAlpha" type="matrix" values="0 0 0 0 0 0 0 0 0 0 0 0 0 0 0 0 0 0 127 0" result="hardAlpha"/>
<feOffset dy="-1"/>
<feComposite in2="hardAlpha" operator="arithmetic" k2="-1" k3="1"/>
<feColorMatrix type="matrix" values="0 0 0 0 0 0 0 0 0 0 0 0 0 0 0 0 0 0 0.1 0"/>
<feBlend mode="normal" in2="shape" result="effect1_innerShadow_1309_280"/>
</filter>
<linearGradient id="paint0_linear_1309_280" x1="2" y1="0" x2="2" y2="96.1538" gradientUnits="userSpaceOnUse">
<stop stop-color="#FFCD69"/>
<stop offset="1" stop-color="#FDCE71"/>
</linearGradient>
</defs>
</svg>
